<svg xmlns="http://www.w3.org/2000/svg" width="32" height="32" fill="none"><rect width="32" height="32" fill="#212529" rx="8"/><path fill="#fff" d="M7.758 12.286a4.218 4.218 0 0 1 1.106-1.778 5.038 5.038 0 0 1 1.78-1.105 6.165 6.165 0 0 1 2.212-.4c.984 0 1.832.164 2.548.491.716.328 1.289.776 1.72 1.349.43.552.715 1.175.859 1.87h-.798c.225-.817.614-1.503 1.167-2.055A5.435 5.435 0 0 1 20.35 9.43 6.635 6.635 0 0 1 22.713 9c1.085 0 2.026.204 2.826.614a4.088 4.088 0 0 1 1.842 1.778c.45.776.675 1.739.675 2.884v9.753h-3.04V14.8c0-.961-.256-1.728-.767-2.3-.492-.573-1.29-.859-2.395-.859-1.004 0-1.864.328-2.58.983-.695.633-1.044 1.483-1.044 2.545v8.864h-3.04V14.8c0-.941-.256-1.697-.768-2.27-.512-.572-1.32-.858-2.426-.858-1.003 0-1.863.317-2.579.952-.695.633-1.045 1.483-1.045 2.545v8.864h-3.01V12.286"/><path fill="#fff" d="M6.271 9.31H3v3.212h3.271V9.31Z"/></svg>
